# xmcd
#
# Track frame offsets:
#	150
#	20052
#	45848
#	72562
#	96513
#	120120
#	137763
#	162869
#	190856
#	218315
#
# Disc length: 3205 seconds
#
# Revision: 3208224551
# Processed by: cddbd v1.5.2PL0 Copyright (c) Steve Scherf et al.
# Submitted via: EZCDAudioConverter 8.0.2.1
#
DISCID=800c830a
DTITLE=Hương Lan, Tuấn Vũ - Người Tình
DYEAR=1996
DGENRE=Miscellaneous
TTITLE0=Hương Lan - Người Tình
TTITLE1=Tuấn Vũ - Lời hứa ban đầu
TTITLE2=Hương Lan, Tuấn Vũ - Giấc mơ tuyệt vời
TTITLE3=Hương Lan - Yêu em từ đó
TTITLE4=Tuấn Vũ - Chiều thủ đô
TTITLE5=Hương Lan, Tuấn Vũ - Lý ngựa ô
TTITLE6=Tuấn Vũ - Đoạn tái bút
TTITLE7=Hương Lan - Trả lại cho tôi
TTITLE8=Hương Lan, Tuấn Vũ - Chuyện buồn ngày xuân
TTITLE9=Tuấn Vũ - Duyên tình
EXTD=
EXTT0=
EXTT1=
EXTT2=
EXTT3=
EXTT4=
EXTT5=
EXTT6=
EXTT7=
EXTT8=
EXTT9=
PLAYORDER=
